<svg width="222" height="88" viewBox="0 0 222 88" fill="none" xmlns="http://www.w3.org/2000/svg">
<path d="M70.8037 0C80.641 0 88.7017 1.48787 94.9844 4.46387C101.35 7.35719 106.061 11.2428 109.12 16.1201C112.179 20.9147 113.708 26.2056 113.708 31.9922C113.708 37.2826 112.427 42.697 109.864 48.2354C107.384 53.7739 103.705 59.0235 98.8281 63.9834C94.0335 68.9434 88.081 73.2425 80.9717 76.8799C76.4251 79.1118 71.3822 81.0547 65.8438 82.708C60.3053 84.3613 54.6015 85.6424 48.7324 86.5518C42.8631 87.4611 37.2001 87.916 31.7441 87.916C24.3869 87.916 17.8563 87.0061 12.1523 85.1875C6.44837 83.4515 2.60413 80.6412 0.620117 76.7559C0.206784 75.9292 0 75.3916 0 75.1436C7.27517e-05 74.9784 0.0828488 74.8955 0.248047 74.8955C0.578714 74.8955 1.15771 75.185 1.98438 75.7637C5.12559 77.9129 9.13465 79.3181 14.0117 79.9795C18.8891 80.6408 23.7672 80.9717 28.6445 80.9717C33.3564 80.9717 38.4406 80.5581 43.8965 79.7314C49.4349 78.9048 54.9733 77.7063 60.5117 76.1357C66.133 74.4824 71.5893 72.4155 76.8799 69.9355C82.1704 67.4556 87.0064 64.5624 91.3877 61.2559C98.249 56.0479 103.251 51.0053 106.393 46.1279C109.534 41.2508 111.104 36.6628 111.104 32.3643C111.104 27.6523 109.368 23.4771 105.896 19.8398C102.424 16.2025 97.5877 13.3922 91.3877 11.4082C85.2705 9.34162 78.0789 8.30765 69.8125 8.30762C66.8365 8.30762 63.7771 8.43169 60.6357 8.67969C55.3452 9.17569 50.0542 10.0856 44.7637 11.4082C39.5559 12.6482 34.5543 14.2189 29.7598 16.1201C25.0481 18.0213 20.8321 20.0875 17.1123 22.3193C13.3924 24.5513 10.4579 26.8664 8.30859 29.2637C6.24193 31.5783 5.20801 33.852 5.20801 36.084C5.20806 37.4892 5.70434 38.8945 6.69629 40.2998C6.94423 40.5478 7.06836 40.8787 7.06836 41.292C7.0683 41.6225 6.94423 41.8708 6.69629 42.0361C6.44831 42.1188 6.11738 41.9947 5.7041 41.6641C4.9601 40.8374 4.25704 39.5553 3.5957 37.8193C2.93453 36.0009 2.60453 33.9758 2.60449 31.7441C2.60449 29.5122 3.09984 27.1971 4.0918 24.7998C5.16646 22.3198 7.02656 20.0462 9.67188 17.9795C12.8132 15.4995 16.6989 13.1854 21.3281 11.0361C25.9574 8.80415 31.0001 6.86133 36.4561 5.20801C41.9947 3.55467 47.6577 2.27359 53.4443 1.36426C59.3135 0.454961 65.0999 2.28167e-05 70.8037 0ZM57.9082 12.3994C58.8173 12.3994 59.2723 12.6064 59.2725 13.0195C59.2725 13.4329 58.9416 13.9705 58.2803 14.6318C55.4696 17.6905 52.4938 21.1626 49.3525 25.0479C46.2939 28.9332 43.2344 33.0256 40.1758 37.3242C37.1173 41.54 34.224 45.7145 31.4961 49.8477C28.8508 53.981 26.5358 57.8252 24.5518 61.3799C22.5678 64.9344 21.1212 67.9103 20.2119 70.3076C19.9639 70.8863 19.6331 71.1758 19.2197 71.1758C18.6413 71.1755 18.3525 70.5965 18.3525 69.4395C18.3527 68.2821 18.972 66.3804 20.2119 63.7354C21.5346 61.0901 23.2707 58.0315 25.4199 54.5596C27.5692 51.0876 29.9256 47.4501 32.4883 43.6475C35.1334 39.7624 37.7787 36.0014 40.4238 32.3643C43.0692 28.6443 45.5496 25.2953 47.8643 22.3193C50.1788 19.2608 52.1218 16.8639 53.6924 15.1279C55.3455 13.3095 56.3786 12.3996 56.792 12.3994H57.9082Z" fill="#EDECE3"/>
<path d="M112.344 55.458C115.531 55.458 118.25 56.1872 120.5 57.6455C122.75 59.1038 124.469 61.0622 125.656 63.5205C126.844 65.9788 127.438 68.708 127.438 71.708C127.438 74.7288 126.812 77.4684 125.562 79.9268C124.312 82.3643 122.542 84.3018 120.25 85.7393C117.979 87.1559 115.281 87.8643 112.156 87.8643C109.052 87.8643 106.365 87.1559 104.094 85.7393C101.823 84.3226 100.073 82.3955 98.8438 79.958C97.6146 77.5205 97 74.7705 97 71.708C97 68.6663 97.6146 65.9163 98.8438 63.458C100.094 60.9997 101.865 59.0518 104.156 57.6143C106.469 56.1768 109.198 55.458 112.344 55.458ZM147.219 55.458C150.031 55.458 152.385 56.0101 154.281 57.1143C156.198 58.1976 157.156 59.7809 157.156 61.8643C157.156 63.1143 156.76 64.0622 155.969 64.708C155.198 65.333 154.333 65.6455 153.375 65.6455C152.667 65.6455 152.052 65.5309 151.531 65.3018C151.01 65.0518 150.552 64.8018 150.156 64.5518V58.9893C149.177 58.4268 148.281 58.1455 147.469 58.1455C145.573 58.1455 143.938 58.708 142.562 59.833C141.208 60.9372 140.167 62.458 139.438 64.3955C138.708 66.333 138.344 68.5413 138.344 71.0205C138.344 73.3747 138.74 75.5309 139.531 77.4893C140.323 79.4268 141.5 80.9684 143.062 82.1143C144.646 83.2601 146.604 83.833 148.938 83.833C150.417 83.833 151.833 83.5934 153.188 83.1143C154.542 82.6351 155.906 81.9476 157.281 81.0518V84.708C155.844 85.4788 154.219 86.1976 152.406 86.8643C150.615 87.5309 148.635 87.8643 146.469 87.8643C143.49 87.8643 140.896 87.1663 138.688 85.7705C136.5 84.3747 134.802 82.4788 133.594 80.083C132.406 77.6663 131.812 74.9268 131.812 71.8643C131.812 68.2809 132.521 65.2705 133.938 62.833C135.375 60.3955 137.26 58.5622 139.594 57.333C141.948 56.083 144.49 55.458 147.219 55.458ZM112.281 58.333C110.302 58.333 108.677 58.958 107.406 60.208C106.156 61.458 105.229 63.0934 104.625 65.1143C104.021 67.1351 103.719 69.3122 103.719 71.6455C103.719 73.958 104.021 76.1351 104.625 78.1768C105.25 80.1976 106.188 81.833 107.438 83.083C108.708 84.333 110.302 84.958 112.219 84.958C114.177 84.958 115.781 84.333 117.031 83.083C118.302 81.833 119.24 80.1976 119.844 78.1768C120.469 76.1559 120.781 73.9788 120.781 71.6455C120.781 69.3122 120.469 67.1351 119.844 65.1143C119.24 63.0934 118.302 61.458 117.031 60.208C115.781 58.958 114.198 58.333 112.281 58.333ZM130.031 19.458C134.01 19.458 137 20.6976 139 23.1768C141 25.6351 142 28.7705 142 32.583V33.4268C142 33.7601 141.979 34.0726 141.938 34.3643H121.188C121.188 35.9893 121.354 37.6143 121.688 39.2393C122.042 40.8434 122.625 42.3018 123.438 43.6143C124.25 44.9268 125.344 45.9788 126.719 46.7705C128.094 47.5622 129.812 47.958 131.875 47.958C133.708 47.958 135.49 47.5413 137.219 46.708C138.969 45.8538 140.562 44.9476 142 43.9893V47.8955C140.208 48.9997 138.271 49.9372 136.188 50.708C134.125 51.4788 132.01 51.8643 129.844 51.8643C127.26 51.8643 124.833 51.2913 122.562 50.1455C120.312 48.9788 118.49 47.2184 117.094 44.8643C115.698 42.5101 115 39.5518 115 35.9893C115 32.6559 115.646 29.7497 116.938 27.2705C118.229 24.7913 120.01 22.8747 122.281 21.5205C124.552 20.1455 127.135 19.458 130.031 19.458ZM161.781 19.458C164.594 19.458 166.948 20.0101 168.844 21.1143C170.76 22.1976 171.719 23.7809 171.719 25.8643C171.719 27.1143 171.323 28.0622 170.531 28.708C169.76 29.333 168.896 29.6455 167.938 29.6455C167.229 29.6455 166.615 29.5309 166.094 29.3018C165.573 29.0518 165.115 28.8018 164.719 28.5518V22.9893C163.74 22.4268 162.844 22.1455 162.031 22.1455C160.135 22.1455 158.5 22.708 157.125 23.833C155.771 24.9372 154.729 26.458 154 28.3955C153.271 30.333 152.906 32.5413 152.906 35.0205C152.906 37.3747 153.302 39.5309 154.094 41.4893C154.885 43.4268 156.062 44.9684 157.625 46.1143C159.208 47.2601 161.167 47.833 163.5 47.833C164.979 47.833 166.396 47.5934 167.75 47.1143C169.104 46.6351 170.469 45.9476 171.844 45.0518V48.708C170.406 49.4788 168.781 50.1976 166.969 50.8643C165.177 51.5309 163.198 51.8643 161.031 51.8643C158.052 51.8643 155.458 51.1663 153.25 49.7705C151.062 48.3747 149.365 46.4788 148.156 44.083C146.969 41.6663 146.375 38.9268 146.375 35.8643C146.375 32.2809 147.083 29.2705 148.5 26.833C149.938 24.3955 151.823 22.5622 154.156 21.333C156.51 20.083 159.052 19.458 161.781 19.458ZM191.531 19.458C194.719 19.458 197.438 20.1872 199.688 21.6455C201.938 23.1038 203.656 25.0622 204.844 27.5205C206.031 29.9788 206.625 32.708 206.625 35.708C206.625 38.7288 206 41.4684 204.75 43.9268C203.5 46.3643 201.729 48.3018 199.438 49.7393C197.167 51.1559 194.469 51.8643 191.344 51.8643C188.24 51.8643 185.552 51.1559 183.281 49.7393C181.01 48.3226 179.26 46.3955 178.031 43.958C176.802 41.5205 176.188 38.7705 176.188 35.708C176.188 32.6663 176.802 29.9163 178.031 27.458C179.281 24.9997 181.052 23.0518 183.344 21.6143C185.656 20.1768 188.385 19.458 191.531 19.458ZM191.469 22.333C189.49 22.333 187.865 22.958 186.594 24.208C185.344 25.458 184.417 27.0934 183.812 29.1143C183.208 31.1351 182.906 33.3122 182.906 35.6455C182.906 37.958 183.208 40.1351 183.812 42.1768C184.438 44.1976 185.375 45.833 186.625 47.083C187.896 48.333 189.49 48.958 191.406 48.958C193.365 48.958 194.969 48.333 196.219 47.083C197.49 45.833 198.427 44.1976 199.031 42.1768C199.656 40.1559 199.969 37.9788 199.969 35.6455C199.969 33.3122 199.656 31.1351 199.031 29.1143C198.427 27.0934 197.49 25.458 196.219 24.208C194.969 22.958 193.385 22.333 191.469 22.333ZM129.375 22.6143C127.271 22.6143 125.479 23.4059 124 24.9893C122.521 26.5726 121.698 28.7393 121.531 31.4893H135.594V30.083C135.594 27.9788 135.083 26.208 134.062 24.7705C133.062 23.333 131.5 22.6143 129.375 22.6143Z" fill="#EDECE3"/>
</svg>
