<svg width="80" height="80" viewBox="0 0 80 80" fill="none" xmlns="http://www.w3.org/2000/svg">
<path d="M48.8566 38.62L50.6233 36.8533C50.1546 36.3852 49.5191 36.1222 48.8566 36.1222C48.1941 36.1222 47.5587 36.3852 47.09 36.8533L48.8566 38.62ZM39.43 29.19L41.1966 30.9567C41.6648 30.4879 41.9278 29.8525 41.9278 29.19C41.9278 28.5275 41.6648 27.8921 41.1966 27.4233L39.43 29.19ZM11.7333 15.64C11.2917 16.1139 11.0513 16.7407 11.0627 17.3884C11.0742 18.0361 11.3365 18.654 11.7946 19.1121C12.2526 19.5701 12.8706 19.8325 13.5182 19.8439C14.1659 19.8553 14.7927 19.6149 15.2666 19.1733L11.7333 15.64ZM47.09 36.8533L40.0166 43.9233L43.5533 47.4567L50.6233 40.3867L47.09 36.8533ZM40.0166 43.9233L15.5033 68.4333L19.04 71.9667L43.5533 47.4533L40.0166 43.9233ZM15.5033 68.4333C14.972 68.9646 14.2514 69.2631 13.5 69.2631C12.7486 69.2631 12.028 68.9646 11.4966 68.4333L7.96331 71.97C9.43229 73.4386 11.4244 74.2603 13.5016 74.2603C15.5788 74.2603 17.571 73.4353 19.04 71.9667L15.5033 68.4333ZM11.4966 68.4333L9.61331 66.5467L6.07998 70.08L7.96331 71.97L11.4966 68.4333ZM9.61331 66.5467C9.08204 66.0153 8.78358 65.2947 8.78358 64.5433C8.78358 63.792 9.08204 63.0713 9.61331 62.54L6.07998 59.0067C4.61135 60.4757 3.78632 62.4678 3.78632 64.545C3.78632 66.6222 4.61135 68.611 6.07998 70.08L9.61331 66.5467ZM9.61331 62.54L34.1266 38.0267L30.59 34.4933L6.07664 59.0033L9.61331 62.54ZM34.1266 38.0267L41.1966 30.9567L37.6633 27.42L30.59 34.4933L34.1266 38.0267ZM69.2433 38.97C69.7746 39.5013 70.073 40.222 70.073 40.9733C70.073 41.7247 69.7746 42.4453 69.2433 42.9767L72.78 46.51C74.2486 45.041 75.0736 43.0489 75.0736 40.9717C75.0736 38.8945 74.2486 36.9023 72.78 35.4333L69.2433 38.97ZM69.2433 42.9767L65.0033 47.22L68.5366 50.7533L72.78 46.5133L69.2433 42.9767ZM65.0033 47.22C64.472 47.7513 63.7514 48.0497 63 48.0497C62.2486 48.0497 61.528 47.7513 60.9966 47.22L57.46 50.7533C58.929 52.222 60.9211 53.047 62.9983 53.047C65.0755 53.047 67.0677 52.222 68.5366 50.7533L65.0033 47.22ZM49.4466 19.17L65.9466 35.67L69.48 32.1367L52.98 15.64L49.4466 19.17ZM65.9466 35.67L69.2433 38.97L72.78 35.4333L69.48 32.1367L65.9466 35.67ZM60.9966 47.22L57.6966 43.92L54.1633 47.4533L57.46 50.7533L60.9966 47.22ZM57.6966 43.92L50.6233 36.8467L47.09 40.3833L54.16 47.4533L57.6966 43.92ZM57.6966 47.4533L69.48 35.67L65.9466 32.1367L54.16 43.92L57.6966 47.4533ZM41.1966 27.42L24.6966 10.92L21.1633 14.4533L37.6633 30.9533L41.1966 27.42ZM43.5533 43.92L34.1266 34.49L30.59 38.0267L40.0166 47.4533L43.5533 43.92ZM15.2666 19.1733C19.7988 14.6413 25.949 12.0952 32.3583 12.0952C38.7677 12.0952 44.9145 14.6379 49.4466 19.17L52.98 15.64C47.5102 10.1706 40.0918 7.0979 32.3566 7.0979C24.6215 7.0979 17.2031 10.1706 11.7333 15.64L15.2666 19.1733Z" fill="#FBFBFB"/>
<path d="M71.0133 44.7467C72.0128 43.7466 72.5742 42.3906 72.5742 40.9767C72.5742 39.5629 72.0128 38.2068 71.0133 37.2067L67.7133 33.9067L55.9267 45.6901L59.2267 48.9901C59.7219 49.4854 60.3099 49.8784 60.9571 50.1465C61.6042 50.4146 62.2978 50.5526 62.9983 50.5526C63.6988 50.5526 64.3924 50.4146 65.0396 50.1465C65.6867 49.8784 66.2747 49.4854 66.77 48.9901L71.0133 44.7467ZM17.2733 70.2034L41.7867 45.6901L32.3567 36.2634L7.84333 60.7767C6.84389 61.7768 6.28247 63.1329 6.28247 64.5467C6.28247 65.9606 6.84389 67.3167 7.84333 68.3167L9.73 70.2034C10.2253 70.6988 10.8133 71.0917 11.4604 71.3598C12.1076 71.6279 12.8012 71.7659 13.5017 71.7659C14.2022 71.7659 14.8958 71.6279 15.5429 71.3598C16.1901 71.0917 16.7781 70.6988 17.2733 70.2034Z" fill="white" fill-opacity="0.16"/>
</svg>
