<svg width="80" height="80" viewBox="0 0 80 80" fill="none" xmlns="http://www.w3.org/2000/svg">
<path d="M34.53 3.3199C36.0817 2.078 38.01 1.40137 39.9975 1.40137C41.985 1.40137 43.9133 2.078 45.465 3.3199L71.715 24.3199C73.79 25.9799 75 28.4949 75 31.1549V66.2499C75 68.5705 74.0781 70.7961 72.4372 72.4371C70.7962 74.078 68.5706 74.9999 66.25 74.9999H48.75C47.7554 74.9999 46.8016 74.6048 46.0984 73.9016C45.3951 73.1983 45 72.2445 45 71.2499V44.9999H35V71.2499C35 72.2445 34.6049 73.1983 33.9017 73.9016C33.1984 74.6048 32.2446 74.9999 31.25 74.9999H13.75C11.4294 74.9999 9.20376 74.078 7.56282 72.4371C5.92187 70.7961 5 68.5705 5 66.2499V31.1499C5 28.4949 6.21 25.9799 8.285 24.3199L34.53 3.3199ZM40.78 9.1749C40.5585 8.99802 40.2835 8.90168 40 8.90168C39.7165 8.90168 39.4415 8.99802 39.22 9.1749L12.97 30.1749C12.8229 30.2923 12.7043 30.4415 12.6229 30.6111C12.5415 30.7808 12.4995 30.9667 12.5 31.1549V66.2499C12.5 66.9399 13.06 67.4999 13.75 67.4999H27.5V41.2499C27.5 40.2553 27.8951 39.3015 28.5983 38.5982C29.3016 37.895 30.2554 37.4999 31.25 37.4999H48.75C49.7446 37.4999 50.6984 37.895 51.4016 38.5982C52.1049 39.3015 52.5 40.2553 52.5 41.2499V67.4999H66.25C66.5815 67.4999 66.8995 67.3682 67.1339 67.1338C67.3683 66.8994 67.5 66.5814 67.5 66.2499V31.1499C67.4997 30.9625 67.4574 30.7777 67.376 30.6089C67.2947 30.4401 67.1764 30.2918 67.03 30.1749L40.78 9.1749Z" fill="#FFFBFB"/>
</svg>
