<svg width="80" height="80" viewBox="0 0 80 80" fill="none" xmlns="http://www.w3.org/2000/svg">
<path d="M41.9375 7.65479L6.64839 52.3438H12.8437L24.7031 36.0626L26.9843 37.7188L16.3125 52.3438H20.6093L25.0156 47.5938L24.7656 52.3438H43.0156L73.5781 7.65479H65.6718L42.2343 42.0157L39.9218 40.422L62.2812 7.65479H56.8281L49.3593 18.047L47.0781 16.3907L53.3593 7.65479H41.9375ZM74.8437 10.7938L45.1562 54.1876V58.9845L55.9218 43.2345L58.2343 44.8282L45.1562 63.9532V69.0001L74.8437 23.3282V21.5001L71.4062 22.4063L74.8437 17.2032V10.7938ZM5.15308 55.1563V72.3438H8.87651L10.5234 66.3907L12.2625 72.3438H18.1406C17.7968 71.4532 17.6093 70.5001 17.6093 69.5001C17.6093 66.5938 19.2343 64.0313 21.6562 62.2657C24.0781 60.5157 27.3125 59.4845 30.8593 59.4845C34.4062 59.4845 37.6406 60.5157 40.0625 62.2657C40.9375 62.9063 41.7187 63.6563 42.3437 64.4845V55.1563H5.15308ZM30.8593 62.297C27.8593 62.297 25.1718 63.1876 23.3125 64.547C21.4375 65.9063 20.4218 67.6407 20.4218 69.5001C20.4218 70.5001 20.7187 71.4532 21.2812 72.3438H23.8281C23.3125 71.6095 22.9843 70.7657 22.9843 69.8282C22.9843 68.0782 24.0937 66.6407 25.5625 65.7188C27.0156 64.7813 28.8906 64.2813 30.9375 64.2813C32.9843 64.2813 34.8593 64.7813 36.3125 65.7188C37.7812 66.6407 38.8906 68.0782 38.8906 69.8282C38.8906 70.7657 38.5625 71.6095 38.0468 72.3438H40.4375C41 71.4532 41.2968 70.5001 41.2968 69.5001C41.2968 67.6407 40.2812 65.9063 38.4062 64.547C36.5468 63.1876 33.8593 62.297 30.8593 62.297ZM30.9375 67.0938C29.375 67.0938 27.9687 67.5157 27.0625 68.0938C26.1562 68.672 25.7968 69.2813 25.7968 69.8282C25.7968 70.3751 26.1562 70.9845 27.0625 71.5626C27.5781 71.8907 28.25 72.172 29.0156 72.3438H32.8593C33.625 72.172 34.2968 71.8907 34.8125 71.5626C35.7187 70.9845 36.0781 70.3751 36.0781 69.8282C36.0781 69.2813 35.7187 68.672 34.8125 68.0938C33.9062 67.5157 32.5 67.0938 30.9375 67.0938Z" fill="white"/>
</svg>
